PathFileType	4	(x/y/z)	Passive_Pref0007.trc
DataRate	CameraRate	NumFrames	NumMarkers	Units	OrigDataRate	OrigDataStartFrame	OrigNumFrames
240	240	10	50	mm	240	1	299
Frame#	Time	R_AC			L_AC			HEAD			STERN			C7			L_IC			R_IC			L_ASIS			R_ASIS			L_GT			R_GT			R_PSIS			L_PSIS			SACRAL			L_LAT_KNEE			L_MED_KNEE			R_LAT_KNEE			R_MED_KNEE			L_LAT_ANK			L_MED_ANK			R_LAT_ANK			R_MED_ANK			L_THIGH_PROX_POST			L_THIGH_PROX_ANT			L_THIGH_DIST_ANT			L_THIGH_DIST_POST			R_THIGH_PROX_POST			R_THIGH_PROX_ANT			R_THIGH_DIST_ANT			R_THIGH_DIST_POST			L_SHANK_PROX_POST			L_SHANK_PROX_ANT			L_SHANK_DIST_ANT			L_SHANK_DIST_POST			R_SHANK_PROX_POST			R_SHANK_PROX_ANT			R_SHANK_DIST_ANT			R_SHANK_DIST_POST			L_HEEL_LAT			L_HEEL_SUP			L_HEEL_MED			R_HEEL_LAT			R_HEEL_SUP			R_HEEL_MED			L_1ST_MET			L_5TH_MET			L_TOE			R_1ST_MET			R_5TH_MET			R_TOE			
		X1	Y1	Z1	X2	Y2	Z2	X3	Y3	Z3	X4	Y4	Z4	X5	Y5	Z5	X6	Y6	Z6	X7	Y7	Z7	X8	Y8	Z8	X9	Y9	Z9	X10	Y10	Z10	X11	Y11	Z11	X12	Y12	Z12	X13	Y13	Z13	X14	Y14	Z14	X15	Y15	Z15	X16	Y16	Z16	X17	Y17	Z17	X18	Y18	Z18	X19	Y19	Z19	X20	Y20	Z20	X21	Y21	Z21	X22	Y22	Z22	X23	Y23	Z23	X24	Y24	Z24	X25	Y25	Z25	X26	Y26	Z26	X27	Y27	Z27	X28	Y28	Z28	X29	Y29	Z29	X30	Y30	Z30	X31	Y31	Z31	X32	Y32	Z32	X33	Y33	Z33	X34	Y34	Z34	X35	Y35	Z35	X36	Y36	Z36	X37	Y37	Z37	X38	Y38	Z38	X39	Y39	Z39	X40	Y40	Z40	X41	Y41	Z41	X42	Y42	Z42	X43	Y43	Z43	X44	Y44	Z44	X45	Y45	Z45	X46	Y46	Z46	X47	Y47	Z47	X48	Y48	Z48	X49	Y49	Z49	X50	Y50	Z50	

1	0	-799.5	1494.4	482.08	-836.92	1511.5	79.589	-757.22	1817.3	299.06	-729.88	1452	285.65	-882.57	1546.6	291.23	-844.53	1071.4	128.51	-845.61	1098.9	470.65	-764.98	1004.3	173.37	-780.15	1007.3	442.7	-849.27	917.11	112.77	-908.3	947.3	478.59	-990.08	1019.7	325.5	-993.19	1006.8	239.97	-1002.5	980.82	284.69	-670.42	550.45	159.3	-655.3	566.34	296.8	-1034.3	554.58	439.59	-1014.8	551.26	307.31	-537.45	127.86	169.39	-547.58	119.03	251.76	-1244.7	139.8	373.56	-1200.9	155.25	275.49	-755.24	767.41	127.81	-702.08	789.54	164.86	-678.45	721.73	176.6	-725.06	699.31	141.72	-987.29	827.15	449.27	-933.65	811.86	480.01	-959.66	741.72	469.06	-1005.2	756.06	440.17	-645.96	500.83	170.57	-607.72	547.18	185.52	-580.68	485.95	197.43	-617.37	445.72	172.4	-1147.6	424.96	432.78	-1094.2	402.61	434.52	-1124.3	334.33	420.5	-1176.5	353.79	417.25	-566.36	45.864	162.74	-593.34	62.884	195.34	-580.86	34.326	231.17	-1327	127.35	330.04	-1310.4	153.69	295.83	-1296.4	120.14	271.47	-380.34	100.69	290.21	-376.64	108.27	171.29	-332.18	149.47	258.16	-1099.6	42.233	295.97	-1150.8	40.201	409.41	-1053.9	40.562	357.92
2	0.0041806	-794.64	1494.1	481.4	-832.05	1510.9	78.897	-752.52	1817	298.39	-724.94	1451.7	285.04	-877.8	1546.1	290.53	-839.02	1070.8	128.13	-840.1	1098.5	470.2	-759.49	1003.6	173.08	-774.79	1006.8	442.55	-843.97	916.44	112.53	-903.17	946.8	478.15	-984.76	1019.2	325.02	-987.16	1006.2	239.52	-997.08	980.31	284.2	-667.28	549.66	159.26	-652.25	565.39	296.8	-1029.2	554.15	439.44	-1009.3	550.55	307.27	-535.86	126.85	169.03	-546.18	118.2	251.58	-1243.1	141.23	373.6	-1199.1	156.28	275.62	-751.07	766.47	127.76	-697.55	788.19	164.5	-674.25	720.28	176.24	-721.18	698.08	141.59	-982.12	826.7	448.67	-928.57	811.44	479.57	-954.57	741.3	468.67	-1000	755.6	439.62	-643.07	499.93	170.52	-604.63	546.09	185.54	-577.86	484.73	197.43	-614.72	444.69	172.34	-1143.4	425.46	432.68	-1090.2	402.59	434.5	-1120.9	334.63	420.48	-1173	354.59	417.14	-565.65	45.238	162.46	-592.31	62.836	194.85	-580.33	34.404	230.91	-1325.5	129.78	329.95	-1308.7	155.98	295.86	-1295	122.31	271.46	-379.37	98.395	289.98	-375.54	106	171.09	-330.79	146.9	257.99	-1099.4	41.979	295.79	-1150.6	40.434	409.44	-1053.9	40.531	357.89
3	0.0083613	-789.58	1493.8	480.7	-826.97	1510.4	78.171	-747.63	1816.6	297.7	-719.79	1451.4	284.4	-872.83	1545.6	289.78	-833.28	1070.1	127.72	-834.35	1098	469.73	-753.79	1003	172.76	-769.18	1006.2	442.36	-838.49	915.8	112.27	-897.79	946.29	477.7	-979.21	1018.7	324.54	-980.94	1005.7	239.07	-991.46	979.81	283.71	-663.98	548.88	159.22	-649.05	564.44	296.8	-1023.9	553.7	439.31	-1003.5	549.8	307.23	-534.24	125.82	168.68	-544.75	117.36	251.4	-1241.5	142.75	373.65	-1197.2	157.37	275.77	-746.71	765.53	127.68	-692.85	786.85	164.12	-669.87	718.84	175.86	-717.13	696.86	141.45	-976.69	826.23	448.04	-923.23	811.01	479.1	-949.21	740.85	468.26	-994.58	755.11	439.05	-640.03	499.03	170.47	-601.38	545.01	185.55	-574.9	483.51	197.43	-611.95	443.67	172.28	-1139	425.99	432.6	-1086	402.58	434.49	-1117.4	334.95	420.46	-1169.2	355.43	417.03	-564.92	44.62	162.18	-591.26	62.801	194.37	-579.78	34.491	230.64	-1323.8	132.36	329.87	-1307	158.39	295.9	-1293.4	124.61	271.45	-378.39	96.04	289.78	-374.41	103.66	170.92	-329.38	144.24	257.85	-1099.2	41.709	295.61	-1150.3	40.681	409.47	-1053.8	40.497	357.86
4	0.012542	-784.35	1493.4	479.97	-821.71	1509.8	77.417	-742.56	1816.2	296.98	-714.46	1451.1	283.74	-867.69	1545.2	289.01	-827.35	1069.5	127.29	-828.37	1097.6	469.25	-747.9	1002.3	172.41	-763.34	1005.7	442.15	-832.84	915.18	111.99	-892.18	945.76	477.24	-973.46	1018.3	324.07	-974.58	1005.2	238.62	-985.65	979.33	283.22	-660.54	548.13	159.18	-645.7	563.52	296.8	-1018.2	553.24	439.19	-997.5	549.02	307.21	-532.61	124.79	168.34	-543.31	116.53	251.22	-1239.8	144.34	373.72	-1195.1	158.52	275.95	-742.18	764.61	127.57	-687.98	785.55	163.74	-665.35	717.44	175.48	-712.92	695.68	141.29	-971.02	825.74	447.4	-917.64	810.57	478.61	-943.6	740.39	467.84	-988.89	754.6	438.48	-636.86	498.16	170.41	-598	543.93	185.57	-571.82	482.29	197.44	-609.06	442.66	172.23	-1134.3	426.55	432.52	-1081.6	402.57	434.49	-1113.7	335.29	420.46	-1165.3	356.31	416.93	-564.19	44.022	161.91	-590.2	62.784	193.91	-579.23	34.59	230.39	-1322.1	135.09	329.79	-1305	160.93	295.96	-1291.7	127.03	271.44	-377.39	93.651	289.59	-373.27	101.29	170.77	-327.94	141.54	257.73	-1099	41.423	295.42	-1150.1	40.943	409.5	-1053.8	40.459	357.82
5	0.016723	-778.99	1493.1	479.23	-816.3	1509.3	76.638	-737.34	1815.9	296.23	-708.98	1450.8	283.06	-862.4	1544.7	288.2	-821.27	1068.9	126.85	-822.2	1097.1	468.75	-741.87	1001.7	172.04	-757.31	1005.2	441.89	-827.09	914.62	111.7	-886.37	945.22	476.77	-967.54	1017.8	323.62	-968.12	1004.7	238.18	-979.67	978.89	282.73	-656.97	547.43	159.14	-642.22	562.64	296.79	-1012.4	552.75	439.1	-991.23	548.21	307.2	-530.97	123.77	168.01	-541.86	115.73	251.05	-1237.9	145.99	373.82	-1193	159.73	276.15	-737.5	763.74	127.44	-682.99	784.3	163.34	-660.7	716.09	175.09	-708.58	694.56	141.13	-965.14	825.23	446.75	-911.84	810.11	478.11	-937.77	739.91	467.42	-982.98	754.06	437.91	-633.58	497.33	170.36	-594.48	542.89	185.58	-568.63	481.1	197.44	-606.07	441.69	172.17	-1129.5	427.12	432.46	-1077	402.57	434.52	-1109.8	335.65	420.48	-1161.2	357.22	416.85	-563.46	43.456	161.65	-589.15	62.787	193.48	-578.67	34.701	230.14	-1320.2	137.95	329.73	-1302.9	163.59	296.02	-1289.9	129.59	271.45	-376.39	91.249	289.43	-372.13	98.903	170.64	-326.5	138.8	257.65	-1098.7	41.125	295.22	-1149.9	41.222	409.54	-1053.7	40.416	357.79
6	0.020903	-773.52	1492.9	478.47	-810.76	1508.7	75.839	-732	1815.6	295.46	-703.37	1450.6	282.36	-856.99	1544.3	287.37	-815.08	1068.4	126.4	-815.87	1096.7	468.25	-735.74	1001.2	171.64	-751.11	1004.7	441.6	-821.25	914.11	111.39	-880.37	944.68	476.29	-961.48	1017.3	323.19	-961.62	1004.4	237.76	-973.57	978.48	282.27	-653.28	546.78	159.09	-638.62	561.82	296.78	-1006.3	552.25	439.04	-984.75	547.38	307.2	-529.35	122.78	167.7	-540.42	114.96	250.89	-1235.9	147.72	373.93	-1190.7	160.98	276.39	-732.71	762.92	127.27	-677.9	783.14	162.92	-655.95	714.82	174.69	-704.13	693.51	140.95	-959.07	824.7	446.11	-905.83	809.65	477.6	-931.73	739.42	467	-976.87	753.51	437.34	-630.19	496.55	170.3	-590.85	541.89	185.6	-565.34	479.94	197.45	-603	440.76	172.11	-1124.5	427.72	432.42	-1072.2	402.58	434.57	-1105.8	336.04	420.52	-1156.9	358.16	416.78	-562.74	42.929	161.41	-588.1	62.813	193.07	-578.12	34.825	229.91	-1318.1	140.95	329.68	-1300.7	166.36	296.1	-1287.9	132.27	271.47	-375.41	88.854	289.31	-370.99	96.519	170.55	-325.07	136.05	257.61	-1098.5	40.817	295.03	-1149.6	41.519	409.58	-1053.7	40.364	357.75
7	0.025084	-767.96	1492.7	477.71	-805.12	1508.2	75.022	-726.57	1815.4	294.68	-697.66	1450.5	281.65	-851.48	1544	286.52	-808.81	1067.9	125.94	-809.42	1096.4	467.74	-729.54	1000.6	171.21	-744.76	1004.2	441.26	-815.37	913.68	111.07	-874.22	944.13	475.82	-955.32	1016.9	322.79	-955.1	1004.1	237.36	-967.37	978.12	281.83	-649.49	546.21	159.03	-634.91	561.07	296.76	-999.93	551.72	439.01	-978.08	546.53	307.23	-527.76	121.82	167.41	-539.01	114.24	250.75	-1233.8	149.5	374.08	-1188.2	162.29	276.66	-727.81	762.18	127.06	-672.73	782.07	162.5	-651.11	713.66	174.28	-699.59	692.56	140.76	-952.83	824.15	445.47	-899.63	809.18	477.08	-925.49	738.92	466.57	-970.57	752.93	436.79	-626.7	495.84	170.23	-587.11	540.94	185.61	-561.96	478.84	197.45	-599.84	439.89	172.06	-1119.2	428.33	432.41	-1067.2	402.61	434.65	-1101.6	336.44	420.59	-1152.5	359.13	416.74	-562.03	42.449	161.19	-587.08	62.865	192.7	-577.58	34.963	229.7	-1315.9	144.08	329.64	-1298.2	169.26	296.21	-1285.7	135.07	271.5	-374.45	86.486	289.22	-369.87	94.155	170.48	-323.65	133.31	257.6	-1098.2	40.504	294.84	-1149.3	41.839	409.62	-1053.7	40.304	357.71
8	0.029265	-762.35	1492.5	476.94	-799.4	1507.8	74.191	-721.06	1815.2	293.89	-691.88	1450.4	280.92	-845.9	1543.6	285.65	-802.5	1067.5	125.47	-802.85	1096	467.22	-723.3	1000.2	170.74	-738.31	1003.7	440.89	-809.47	913.34	110.74	-867.92	943.59	475.35	-949.06	1016.6	322.43	-948.6	1003.8	236.99	-961.1	977.83	281.42	-645.59	545.71	158.96	-631.1	560.41	296.72	-993.4	551.19	439.03	-971.22	545.66	307.28	-526.2	120.9	167.15	-537.64	113.57	250.63	-1231.6	151.35	374.25	-1185.7	163.65	276.98	-722.84	761.52	126.82	-667.51	781.12	162.05	-646.21	712.61	173.86	-694.96	691.73	140.54	-946.43	823.58	444.85	-893.27	808.7	476.55	-919.07	738.4	466.16	-964.11	752.33	436.26	-623.12	495.2	170.16	-583.28	540.06	185.6	-558.51	477.8	197.45	-596.62	439.09	171.99	-1113.8	428.95	432.43	-1062.1	402.64	434.76	-1097.2	336.86	420.7	-1147.9	360.13	416.72	-561.34	42.022	160.99	-586.09	62.944	192.37	-577.05	35.114	229.5	-1313.6	147.35	329.63	-1295.5	172.27	296.33	-1283.4	137.99	271.55	-373.51	84.157	289.16	-368.77	91.826	170.45	-322.27	130.58	257.63	-1097.9	40.19	294.65	-1149	42.185	409.67	-1053.6	40.232	357.68
9	0.033445	-756.69	1492.4	476.17	-793.61	1507.3	73.35	-715.49	1815.1	293.08	-686.03	1450.3	280.19	-840.27	1543.4	284.77	-796.15	1067.1	125	-796.2	1095.8	466.69	-717.04	999.82	170.24	-731.76	1003.2	440.47	-803.58	913.1	110.41	-861.51	943.06	474.89	-942.74	1016.3	322.13	-942.15	1003.7	236.67	-954.78	977.6	281.06	-641.59	545.29	158.88	-627.19	559.83	296.67	-986.66	550.63	439.09	-964.19	544.78	307.36	-524.68	120.03	166.92	-536.31	112.97	250.53	-1229.2	153.26	374.46	-1182.9	165.06	277.33	-717.81	760.96	126.53	-662.24	780.3	161.59	-641.25	711.7	173.42	-690.27	691.01	140.31	-939.89	822.99	444.24	-886.74	808.22	476.02	-912.47	737.88	465.75	-957.49	751.71	435.76	-619.46	494.64	170.07	-579.35	539.24	185.58	-554.98	476.82	197.43	-593.32	438.37	171.92	-1108.2	429.59	432.49	-1056.8	402.69	434.92	-1092.6	337.31	420.84	-1143.1	361.15	416.74	-560.68	41.65	160.81	-585.13	63.05	192.08	-576.54	35.279	229.32	-1311.1	150.75	329.64	-1292.7	175.4	296.48	-1280.9	141.04	271.62	-372.6	81.882	289.14	-367.7	89.542	170.45	-320.92	127.9	257.7	-1097.7	39.882	294.47	-1148.7	42.562	409.71	-1053.6	40.145	357.65
10	0.037626	-750.99	1492.4	475.4	-787.78	1507	72.501	-709.88	1815	292.27	-680.15	1450.3	279.45	-834.59	1543.1	283.88	-789.82	1066.8	124.52	-789.47	1095.5	466.17	-710.78	999.53	169.71	-725.15	1002.8	440	-797.72	912.97	110.06	-854.98	942.54	474.44	-936.36	1016	321.87	-935.76	1003.7	236.39	-948.43	977.44	280.74	-637.51	544.96	158.76	-623.19	559.35	296.59	-979.72	550.06	439.21	-956.99	543.87	307.46	-523.21	119.21	166.71	-535.02	112.43	250.46	-1226.7	155.24	374.71	-1180.1	166.52	277.74	-712.73	760.5	126.22	-656.94	779.62	161.11	-636.26	710.93	172.97	-685.51	690.43	140.05	-933.23	822.39	443.67	-880.07	807.74	475.5	-905.71	737.34	465.36	-950.72	751.07	435.3	-615.72	494.16	169.96	-575.34	538.5	185.54	-551.39	475.92	197.4	-589.97	437.73	171.84	-1102.5	430.24	432.59	-1051.3	402.75	435.12	-1087.9	337.78	421.04	-1138.1	362.19	416.8	-560.04	41.337	160.66	-584.23	63.184	191.83	-576.05	35.457	229.16	-1308.4	154.28	329.67	-1289.6	178.64	296.67	-1278.3	144.21	271.71	-371.72	79.669	289.14	-366.67	87.312	170.47	-319.6	125.25	257.79	-1097.4	39.586	294.31	-1148.4	42.975	409.76	-1053.6	40.039	357.62
